first trial																																					
nRows=35																																					
nColumns=38																																					
																																					
# SIMM Motion File Header:																																					
name MVN-015																																					
datacolumns 38																																					
datarows 35																																					
otherdata 1																																					
range 13.999 14.566																																					
endheader																																					
time	pelvis_tilt	pelvis_list	pelvis_rotation	pelvis_tx	pelvis_ty	pelvis_tz	hip_flexion_r	hip_adduction_r	hip_rotation_r	knee_angle_r	ankle_angle_r	subtalar_angle_r	mtp_angle_r	hip_flexion_l	hip_adduction_l	hip_rotation_l	knee_angle_l	ankle_angle_l	subtalar_angle_l	mtp_angle_l	lumbar_extension	lumbar_bending	lumbar_rotation	arm_flex_r	arm_add_r	arm_rot_r	elbow_flex_r	pro_sup_r	wrist_flex_r	wrist_dev_r	arm_flex_l	arm_add_l	arm_rot_l	elbow_flex_l	pro_sup_l	wrist_flex_l	wrist_dev_l
13.999	-2.9638	0.3782	89.9473	-0.3775	0.832	0.3412	39.1703	-18.6383	5.5474	18.6897	-18.9445	16.6996	0	47.402	-7.0228	1.1826	32.8252	-13.4538	3.6052	0	1.9283	2.3312	1.1586	44.2843	-19.3817	6.9558	85.8009	9.6017	-10.348	-24.2488	23.0213	-33.8534	4.2077	33.8246	114.6955	-7.0295	12.3561
14.016	-2.942	0.3746	89.9606	-0.3775	0.832	0.3413	39.1444	-18.6458	5.5371	18.6849	-18.9515	16.7026	0	47.3852	-7.0095	1.1995	32.82	-13.4627	3.597	0	1.9317	2.3227	1.1616	44.5983	-19.4691	7.093	86.9067	9.411	-10.0906	-24.2236	23.0227	-33.8653	4.2251	33.8003	114.6775	-7.0215	12.3623
14.033	-2.9196	0.372	89.9716	-0.3775	0.832	0.3414	39.119	-18.6541	5.5288	18.6791	-18.96	16.7072	0	47.3671	-6.9955	1.2128	32.8145	-13.4703	3.5871	0	1.9351	2.3163	1.1674	44.9257	-19.5663	7.222	87.9898	9.2235	-9.8694	-24.2185	23.0304	-33.8712	4.2365	33.7662	114.6686	-7.0118	12.3725
14.049	-2.9006	0.3694	89.9806	-0.3776	0.8319	0.3414	39.0978	-18.6603	5.5218	18.6743	-18.9672	16.7097	0	47.3518	-6.9846	1.2247	32.8098	-13.4771	3.5797	0	1.9397	2.3117	1.1699	45.2412	-19.6684	7.3537	89.0588	9.0317	-9.6641	-24.2236	23.0289	-33.8762	4.2348	33.7416	114.6717	-7.0027	12.3796
14.066	-2.886	0.3655	89.9873	-0.3776	0.8319	0.3415	39.082	-18.6632	5.5157	18.671	-18.9716	16.7082	0	47.3412	-6.9785	1.2363	32.8069	-13.4823	3.577	0	1.9467	2.3099	1.1651	45.5349	-19.7809	7.494	90.1156	8.82	-9.4926	-24.2415	23.0085	-33.8795	4.2102	33.7371	114.6953	-6.9943	12.3805
14.083	-2.8746	0.3613	89.9917	-0.3776	0.8319	0.3415	39.0704	-18.6639	5.5109	18.6688	-18.9746	16.7047	0	47.3335	-6.9755	1.2465	32.8049	-13.4866	3.5769	0	1.9548	2.31	1.157	45.8171	-19.898	7.6373	91.1587	8.6026	-9.3374	-24.2701	22.9789	-33.8818	4.1725	33.7423	114.7308	-6.9866	12.3783
14.099	-2.8659	0.3588	89.9941	-0.3776	0.8319	0.3415	39.0625	-18.6637	5.5076	18.6673	-18.9774	16.7019	0	47.3269	-6.9742	1.254	32.8015	-13.4916	3.5772	0	1.9616	2.3087	1.151	46.0917	-19.9976	7.7765	92.1902	8.4184	-9.125	-24.2922	22.9524	-33.8895	4.1436	33.745	114.7554	-6.9814	12.3744
14.116	-2.8603	0.3597	89.9931	-0.3776	0.8319	0.3416	39.0592	-18.6622	5.507	18.6669	-18.9798	16.7002	0	47.3204	-6.9754	1.2558	32.795	-13.4983	3.5781	0	1.9657	2.3044	1.1493	46.3553	-20.0611	7.9082	93.2189	8.3008	-8.8312	-24.3094	22.9343	-33.9069	4.1354	33.7407	114.7571	-6.9803	12.3682
14.133	-2.8575	0.3623	89.99	-0.3776	0.8319	0.3416	39.0595	-18.6597	5.5079	18.6673	-18.9819	16.6991	0	47.315	-6.9783	1.2548	32.7873	-13.5056	3.5794	0	1.9683	2.2987	1.1497	46.6111	-20.1075	8.0354	94.2354	8.2189	-8.4802	-24.3211	22.9194	-33.9296	4.1359	33.734	114.748	-6.9818	12.3603
14.149	-2.8553	0.3643	89.9878	-0.3775	0.8319	0.3416	39.0613	-18.6582	5.5063	18.6674	-18.9852	16.7003	0	47.3125	-6.9797	1.2583	32.7812	-13.5121	3.5788	0	1.9704	2.2942	1.1515	46.8734	-20.1709	8.1615	95.2146	8.1153	-8.0707	-24.3069	22.905	-33.9519	4.1306	33.7262	114.7405	-6.983	12.3541
14.166	-2.8538	0.3647	89.9875	-0.3775	0.8318	0.3417	39.0647	-18.6585	5.5003	18.6672	-18.991	16.7052	0	47.3146	-6.9785	1.2702	32.7783	-13.5172	3.5748	0	1.9714	2.2921	1.155	47.1553	-20.2576	8.2975	96.1306	7.965	-7.5858	-24.2464	22.8903	-33.9734	4.109	33.7153	114.7397	-6.9842	12.3517
14.183	-2.8529	0.3644	89.988	-0.3775	0.8318	0.3418	39.0694	-18.6597	5.4918	18.6669	-18.998	16.7124	0	47.3195	-6.9758	1.2865	32.7771	-13.5214	3.5689	0	1.9718	2.2911	1.1598	47.444	-20.3611	8.433	97.0094	7.7916	-7.0412	-24.1597	22.876	-33.9944	4.0815	33.7032	114.7407	-6.9851	12.3509
14.199	-2.8521	0.3639	89.9895	-0.3775	0.8318	0.3419	39.0726	-18.6618	5.4831	18.666	-19.0041	16.719	0	47.3236	-6.9717	1.3023	32.7757	-13.5251	3.5627	0	1.9741	2.2893	1.1643	47.7154	-20.4956	8.5392	97.9035	7.6082	-6.484	-24.0867	22.8622	-34.0098	4.065	33.6969	114.7407	-6.9827	12.349
14.216	-2.8514	0.3632	89.9919	-0.3775	0.8318	0.3419	39.0725	-18.6651	5.4734	18.6636	-19.0088	16.7247	0	47.3252	-6.9657	1.3161	32.7732	-13.528	3.5562	0	1.9803	2.2858	1.1678	47.9605	-20.6878	8.5911	98.8417	7.4086	-5.9256	-24.0532	22.8477	-34.0155	4.0743	33.7029	114.735	-6.9739	12.3435
14.233	-2.8507	0.3623	89.9951	-0.3775	0.8317	0.3419	39.0709	-18.6694	5.4636	18.6608	-19.0126	16.73	0	47.3259	-6.9583	1.3293	32.7706	-13.5304	3.5495	0	1.9883	2.2817	1.1709	48.1884	-20.9117	8.6139	99.7972	7.1943	-5.3552	-24.0309	22.8336	-34.0155	4.0947	33.7146	114.7282	-6.9618	12.3368
14.249	-2.8495	0.3616	89.999	-0.3775	0.8317	0.342	39.07	-18.673	5.458	18.6598	-19.015	16.7333	0	47.3273	-6.9514	1.3407	32.769	-13.5331	3.5443	0	1.9948	2.2783	1.1737	48.4025	-21.1029	8.6546	100.7381	6.9917	-4.7871	-23.979	22.8238	-34.017	4.0989	33.7191	114.7317	-6.9518	12.3339
14.266	-2.8483	0.3614	90.0036	-0.3775	0.8317	0.342	39.0715	-18.6751	5.4595	18.662	-19.0153	16.7338	0	47.3307	-6.9462	1.3499	32.7688	-13.5367	3.5423	0	1.9981	2.2761	1.177	48.6053	-21.2316	8.7368	101.654	6.8091	-4.2262	-23.8781	22.8226	-34.023	4.0662	33.7087	114.7581	-6.9465	12.3393
14.283	-2.8466	0.3615	90.0088	-0.3775	0.8317	0.3421	39.0736	-18.6765	5.4652	18.6661	-19.0142	16.7324	0	47.3348	-6.9415	1.3573	32.7695	-13.5406	3.5418	0	1.9999	2.2747	1.18	48.7942	-21.3274	8.8362	102.5538	6.642	-3.6668	-23.7495	22.8257	-34.0304	4.0173	33.691	114.7947	-6.9434	12.3486
14.299	-2.8429	0.3615	90.0146	-0.3775	0.8316	0.3421	39.0738	-18.679	5.471	18.6701	-19.0129	16.7309	0	47.3372	-6.9363	1.3627	32.7704	-13.5439	3.5404	0	2.0019	2.2744	1.1805	48.9655	-21.4148	8.9274	103.4335	6.499	-3.1067	-23.6153	22.8234	-34.0373	3.987	33.6759	114.8143	-6.9404	12.3535
14.316	-2.8362	0.3617	90.0209	-0.3775	0.8316	0.3422	39.0705	-18.6834	5.4764	18.6735	-19.0116	16.7295	0	47.3363	-6.93	1.365	32.771	-13.5461	3.5365	0	2.0046	2.2746	1.1778	49.1152	-21.4995	8.9976	104.2901	6.3823	-2.5412	-23.4813	22.8105	-34.0425	3.996	33.6689	114.7993	-6.9366	12.3496
14.333	-2.8277	0.3618	90.0279	-0.3776	0.8315	0.3422	39.0653	-18.6888	5.4819	18.6768	-19.0102	16.7281	0	47.3338	-6.9231	1.3653	32.7717	-13.5477	3.5316	0	2.0075	2.2758	1.1726	49.2471	-21.5758	9.0596	105.1273	6.2878	-1.9754	-23.3422	22.7923	-34.0471	4.0236	33.6643	114.7673	-6.9329	12.3414
14.349	-2.8192	0.3615	90.0349	-0.3776	0.8315	0.3423	39.0596	-18.6951	5.4839	18.6793	-19.0092	16.7281	0	47.3314	-6.9159	1.3668	32.7729	-13.5492	3.528	0	2.0109	2.2794	1.1654	49.3698	-21.6504	9.1264	105.9512	6.2141	-1.422	-23.2013	22.7753	-34.0527	4.0426	33.6556	114.7439	-6.9298	12.3337
14.366	-2.8108	0.3605	90.0415	-0.3777	0.8314	0.3423	39.0536	-18.7021	5.4808	18.681	-19.0086	16.7288	0	47.3293	-6.9083	1.3703	32.7748	-13.5509	3.5274	0	2.0162	2.287	1.1545	49.4839	-21.7278	9.2059	106.7616	6.165	-0.8809	-23.0634	22.7614	-34.0602	4.0416	33.6376	114.7418	-6.9277	12.3278
14.383	-2.8024	0.359	90.048	-0.3777	0.8314	0.3424	39.0471	-18.71	5.4742	18.682	-19.0084	16.7309	0	47.3274	-6.9003	1.3748	32.7773	-13.5525	3.5282	0	2.0221	2.297	1.1416	49.5886	-21.8035	9.2902	107.5586	6.1374	-0.3524	-22.9234	22.7487	-34.0686	4.0319	33.6155	114.7483	-6.9261	12.3224
14.399	-2.7949	0.3579	90.0541	-0.3777	0.8313	0.3425	39.0421	-18.7183	5.4651	18.6822	-19.0105	16.7374	0	47.3272	-6.8926	1.381	32.7801	-13.554	3.5276	0	2.0246	2.3063	1.1315	49.6904	-21.8701	9.3692	108.3489	6.1204	0.1505	-22.7696	22.7372	-34.0771	4.0203	33.5973	114.7511	-6.9242	12.3185
14.416	-2.7886	0.3576	90.0593	-0.3778	0.8313	0.3425	39.039	-18.7275	5.4534	18.6807	-19.0166	16.7518	0	47.3291	-6.8852	1.3881	32.7833	-13.5552	3.524	0	2.0212	2.3138	1.126	49.7951	-21.917	9.4454	109.1328	6.1119	0.6168	-22.5981	22.7269	-34.088	4.0068	33.5867	114.7428	-6.922	12.3174
14.433	-2.7833	0.3578	90.0641	-0.3778	0.8312	0.3426	39.0373	-18.7371	5.4392	18.6785	-19.0249	16.7706	0	47.3327	-6.8781	1.3968	32.7867	-13.5562	3.5191	0	2.0144	2.3206	1.1235	49.8967	-21.9548	9.5162	109.9105	6.113	1.058	-22.4124	22.7178	-34.0989	3.9915	33.58	114.7306	-6.9195	12.3178
14.449	-2.7793	0.3569	90.0693	-0.3778	0.8311	0.3427	39.0368	-18.7452	5.424	18.6776	-19.0318	16.7859	0	47.3376	-6.8717	1.409	32.7903	-13.5575	3.5152	0	2.0077	2.3269	1.1239	49.9842	-22.0093	9.5634	110.6892	6.1171	1.495	-22.2116	22.7102	-34.1012	3.9805	33.575	114.7245	-6.9158	12.3167
14.466	-2.7775	0.3546	90.0756	-0.3778	0.8311	0.3428	39.0385	-18.751	5.4073	18.6791	-19.0365	16.7954	0	47.3447	-6.8666	1.4264	32.7938	-13.5596	3.5135	0	2.0017	2.3323	1.1296	50.0494	-22.0938	9.574	111.4829	6.1248	1.939	-21.9918	22.7036	-34.0866	3.9783	33.5725	114.7295	-6.9091	12.3121
14.482	-2.7772	0.3513	90.0824	-0.3778	0.8311	0.3428	39.0415	-18.7553	5.3896	18.6821	-19.0397	16.8015	0	47.3532	-6.8623	1.4473	32.7975	-13.562	3.5129	0	1.9959	2.3371	1.1383	50.1005	-22.1951	9.5612	112.2779	6.1345	2.3794	-21.7561	22.6985	-34.0634	3.9805	33.5717	114.7404	-6.9013	12.306
14.499	-2.7761	0.3476	90.0903	-0.3778	0.831	0.3429	39.0429	-18.7593	5.3744	18.6857	-19.0406	16.8026	0	47.3606	-6.8572	1.4687	32.8013	-13.5638	3.5124	0	1.9926	2.3426	1.1438	50.1511	-22.2985	9.546	113.0388	6.1368	2.8043	-21.5146	22.6961	-34.0476	3.9807	33.5674	114.7519	-6.8973	12.3022
14.516	-2.773	0.3431	90.1	-0.3779	0.831	0.3429	39.0412	-18.7629	5.3625	18.6904	-19.0379	16.7965	0	47.3654	-6.8507	1.4905	32.8048	-13.565	3.5127	0	1.9938	2.3491	1.1431	50.2059	-22.3986	9.5382	113.7504	6.1228	3.1895	-21.2656	22.6979	-34.0481	3.975	33.5567	114.766	-6.9003	12.3031
14.533	-2.7693	0.3379	90.1106	-0.3779	0.8309	0.343	39.038	-18.7661	5.353	18.6959	-19.0329	16.7855	0	47.3691	-6.8434	1.5127	32.8084	-13.5657	3.5132	0	1.9976	2.3563	1.1392	50.2601	-22.5008	9.5282	114.4277	6.1014	3.559	-21.0119	22.7024	-34.0561	3.9673	33.5426	114.7806	-6.9071	12.3062
14.549	-2.7668	0.3329	90.1216	-0.3779	0.8309	0.343	39.0354	-18.7698	5.3466	18.7003	-19.028	16.7758	0	47.3744	-6.835	1.533	32.8131	-13.5646	3.5112	0	1.9997	2.3642	1.1357	50.3138	-22.6067	9.5081	115.0807	6.09	3.9718	-20.7712	22.7056	-34.0611	3.963	33.5293	114.785	-6.9128	12.3078
14.566	-2.7658	0.328	90.1323	-0.378	0.8308	0.3431	39.0344	-18.7739	5.3452	18.7032	-19.0242	16.769	0	47.3828	-6.8249	1.5513	32.8198	-13.5609	3.5044	0	1.9973	2.3727	1.1346	50.3694	-22.714	9.4759	115.7032	6.1042	4.4552	-20.5513	22.7078	-34.0589	3.9651	33.5166	114.7711	-6.9156	12.3063
